<?xml version="1.0" encoding="utf-8"?>
<!-- Generator: Adobe Illustrator 15.1.0, SVG Export Plug-In . SVG Version: 6.00 Build 0)  -->
<!DOCTYPE svg PUBLIC "-//W3C//DTD SVG 1.1//EN" "http://www.w3.org/Graphics/SVG/1.1/DTD/svg11.dtd">
<svg version="1.1" xmlns="http://www.w3.org/2000/svg" xmlns:xlink="http://www.w3.org/1999/xlink" x="0px" y="0px" width="402px"
	 height="402px" viewBox="0 0 402 402" enable-background="new 0 0 402 402" xml:space="preserve">
<g id="L3">
	<g>
		<path fill="#fff" d="M202.2,397.5C94.6,397.5,7.1,310,7.1,202.4C7.1,94.8,94.6,7.3,202.2,7.3c107.6,0,195.1,87.5,195.1,195.1
			C397.3,310,309.8,397.5,202.2,397.5z"/>
		<path d="M202.2,11.3c25.8,0,50.8,5.1,74.4,15c22.8,9.6,43.2,23.4,60.7,41s31.3,38,41,60.7c10,23.6,15,48.6,15,74.4
			s-5.1,50.8-15,74.4c-9.6,22.8-23.4,43.2-41,60.7s-38,31.3-60.7,41c-23.6,10-48.6,15-74.4,15s-50.8-5.1-74.4-15
			c-22.8-9.6-43.2-23.4-60.7-41s-31.3-38-41-60.7c-10-23.6-15-48.6-15-74.4s5.1-50.8,15-74.4c9.6-22.8,23.4-43.2,41-60.7
			s38-31.3,60.7-41C151.4,16.4,176.4,11.3,202.2,11.3 M202.2,3.3C92.2,3.3,3.1,92.4,3.1,202.4s89.1,199.1,199.1,199.1
			s199.1-89.1,199.1-199.1S312.2,3.3,202.2,3.3L202.2,3.3z"/>
	</g>
</g>
<g id="L5">
	<g>
		<path d="M202.2,80.4c32.6,0,63.2,12.7,86.3,35.7c23,23,35.7,53.7,35.7,86.3c0,32.6-12.7,63.2-35.7,86.3s-53.7,35.7-86.3,35.7
			c-32.6,0-63.2-12.7-86.3-35.7c-23-23-35.7-53.7-35.7-86.3c0-32.6,12.7-63.2,35.7-86.3C139,93.1,169.6,80.4,202.2,80.4 M202.2,17.4
			c-102.2,0-185,82.8-185,185s82.8,185,185,185s185-82.8,185-185S304.4,17.4,202.2,17.4L202.2,17.4z"/>
	</g>
</g>
<g id="L4">
	<circle fill="none" stroke="#000" stroke-width="2" cx="202" cy="202" r="114"/>
	<g>
		<defs>
			<circle id="SVGID_1_" cx="202" cy="202" r="114"/>
		</defs>
		<clipPath id="SVGID_2_">
			<use xlink:href="#SVGID_1_"  overflow="visible"/>
		</clipPath>
		
		<rect x="75" y="86" clip-path="url(#SVGID_2_)" stroke="#000" stroke-width="4" width="127" height="117"/>
		<rect x="202" y="202" clip-path="url(#SVGID_2_)" stroke="#000" stroke-width="4" width="127" height="117"/>
		<use xlink:href="#SVGID_1_"  overflow="visible" fill="none" stroke="#000" stroke-width="4"/>
	</g>
</g>
<g id="L2">
	<g>
		<path fill="none" d="M202.2,356.5c-85,0-154.1-69.1-154.1-154.1c0-85,69.1-154.1,154.1-154.1c85,0,154.1,69.1,154.1,154.1
			C356.3,287.4,287.2,356.5,202.2,356.5z"/>
		<path fill="#fff" d="M62.1,90.5l16.6-16.8c6.1-6.2,12.9-7.5,18.7-1.8c3.5,3.4,4.2,7.7,2.5,12.2l0.1,0.1
			c5.1-3.3,10.6-2.3,15.3,2.3c5.4,5.3,5.9,13.3-2.9,22.2l-15.7,15.9L62.1,90.5z M82.5,98.8l9.7-9.9c2.9-2.9,3.3-6.8,0.2-9.8
			c-3.5-3.4-6.5-2.9-9.8,0.4L73,89.4L82.5,98.8z M97.7,113.7l10.6-10.7c3.6-3.7,3.7-7.8,0.3-11.2c-3.4-3.3-7.4-3.1-11.1,0.6
			l-10.6,10.7L97.7,113.7z"/>
		<path fill="#fff" d="M176.3,24.4l12-0.2l14,37.8l0.1,0l12.4-38.2l11.8-0.2l0.8,48.5l-8.1,0.1l-0.6-37.5l-0.1,0l-12.8,37.7
			l-7,0.1l-14.1-37.2l-0.1,0l0.6,37.5l-8.1,0.1L176.3,24.4z"/>
		<path fill="#fff" d="M314,59.9l5.8,6.4l-21.8,31.3l0.1,0.1l34.2-17.5l5.8,6.5l-21.3,31.9l0.1,0.1l33.7-18l5.8,6.4l-45.1,22.4
			l-5.8-6.4l21.2-32l-0.1-0.1l-34.3,17.4l-5.8-6.5L314,59.9z"/>
	</g>
</g>
</svg>
